<mxfile host="app.diagrams.net" modified="2021-04-08T09:00:28.143Z" agent="5.0 (Windows NT 10.0; Win64; x64) AppleWebKit/537.36 (KHTML, like Gecko) Chrome/89.0.4389.114 Safari/537.36 Edg/89.0.774.68" etag="AFZdQ2a8hQoW4CDipl_w" version="14.5.7" type="github">
  <diagram id="gLZ10RqHVhII2BNQGgIZ" name="Page-1">
    <mxGraphModel dx="2272" dy="794" grid="1" gridSize="10" guides="1" tooltips="1" connect="1" arrows="1" fold="1" page="1" pageScale="1" pageWidth="850" pageHeight="1100" math="0" shadow="0">
      <root>
        <object label="" id="0">
          <mxCell />
        </object>
        <mxCell id="1" parent="0" />
        <mxCell id="vrtzPakDpffFBHqEH1uZ-9" style="edgeStyle=orthogonalEdgeStyle;rounded=0;orthogonalLoop=1;jettySize=auto;html=1;" edge="1" parent="1" target="vrtzPakDpffFBHqEH1uZ-7">
          <mxGeometry relative="1" as="geometry">
            <mxPoint x="160" y="190" as="sourcePoint" />
          </mxGeometry>
        </mxCell>
        <mxCell id="vrtzPakDpffFBHqEH1uZ-1" value="Adobe Webhooks" style="outlineConnect=0;dashed=0;verticalLabelPosition=bottom;verticalAlign=top;align=center;html=1;shape=mxgraph.aws3.internet;fillColor=#D2D3D3;gradientColor=none;" vertex="1" parent="1">
          <mxGeometry x="120" y="90" width="79.5" height="79.5" as="geometry" />
        </mxCell>
        <mxCell id="vrtzPakDpffFBHqEH1uZ-3" value="" style="endArrow=none;html=1;" edge="1" parent="1">
          <mxGeometry width="50" height="50" relative="1" as="geometry">
            <mxPoint x="-87" y="200" as="sourcePoint" />
            <mxPoint x="683" y="200" as="targetPoint" />
          </mxGeometry>
        </mxCell>
        <mxCell id="vrtzPakDpffFBHqEH1uZ-4" value="Internet" style="text;html=1;strokeColor=none;fillColor=none;align=center;verticalAlign=middle;whiteSpace=wrap;rounded=0;fontStyle=5" vertex="1" parent="1">
          <mxGeometry x="-60" y="119.75" width="40" height="20" as="geometry" />
        </mxCell>
        <mxCell id="vrtzPakDpffFBHqEH1uZ-6" value="" style="endArrow=none;html=1;" edge="1" parent="1">
          <mxGeometry width="50" height="50" relative="1" as="geometry">
            <mxPoint x="-90" y="290" as="sourcePoint" />
            <mxPoint x="680" y="290" as="targetPoint" />
          </mxGeometry>
        </mxCell>
        <mxCell id="vrtzPakDpffFBHqEH1uZ-12" style="edgeStyle=orthogonalEdgeStyle;rounded=0;orthogonalLoop=1;jettySize=auto;html=1;" edge="1" parent="1" source="vrtzPakDpffFBHqEH1uZ-7" target="vrtzPakDpffFBHqEH1uZ-11">
          <mxGeometry relative="1" as="geometry" />
        </mxCell>
        <mxCell id="vrtzPakDpffFBHqEH1uZ-7" value="ext-esignature-adobe-inbound-api" style="rounded=1;whiteSpace=wrap;html=1;fillColor=#dae8fc;strokeColor=#6c8ebf;" vertex="1" parent="1">
          <mxGeometry x="79.75" y="230" width="160" height="40" as="geometry" />
        </mxCell>
        <mxCell id="vrtzPakDpffFBHqEH1uZ-8" value="&lt;b&gt;&lt;u&gt;Tier 2&lt;/u&gt;&lt;/b&gt;" style="text;html=1;strokeColor=none;fillColor=none;align=center;verticalAlign=middle;whiteSpace=wrap;rounded=0;" vertex="1" parent="1">
          <mxGeometry x="-60" y="240" width="40" height="20" as="geometry" />
        </mxCell>
        <mxCell id="vrtzPakDpffFBHqEH1uZ-10" value="&lt;b&gt;&lt;u&gt;Tier 3&lt;/u&gt;&lt;/b&gt;" style="text;html=1;strokeColor=none;fillColor=none;align=center;verticalAlign=middle;whiteSpace=wrap;rounded=0;" vertex="1" parent="1">
          <mxGeometry x="-60" y="330" width="40" height="20" as="geometry" />
        </mxCell>
        <mxCell id="vrtzPakDpffFBHqEH1uZ-14" style="edgeStyle=orthogonalEdgeStyle;rounded=0;orthogonalLoop=1;jettySize=auto;html=1;" edge="1" parent="1" source="vrtzPakDpffFBHqEH1uZ-11" target="vrtzPakDpffFBHqEH1uZ-13">
          <mxGeometry relative="1" as="geometry" />
        </mxCell>
        <mxCell id="vrtzPakDpffFBHqEH1uZ-11" value="esignature-inbound-router" style="rounded=1;whiteSpace=wrap;html=1;fillColor=#dae8fc;strokeColor=#6c8ebf;" vertex="1" parent="1">
          <mxGeometry x="80" y="310" width="160" height="40" as="geometry" />
        </mxCell>
        <mxCell id="vrtzPakDpffFBHqEH1uZ-21" style="edgeStyle=orthogonalEdgeStyle;rounded=0;orthogonalLoop=1;jettySize=auto;html=1;" edge="1" parent="1" source="vrtzPakDpffFBHqEH1uZ-13" target="vrtzPakDpffFBHqEH1uZ-20">
          <mxGeometry relative="1" as="geometry" />
        </mxCell>
        <mxCell id="vrtzPakDpffFBHqEH1uZ-22" style="edgeStyle=orthogonalEdgeStyle;rounded=0;orthogonalLoop=1;jettySize=auto;html=1;entryX=0.5;entryY=0;entryDx=0;entryDy=0;entryPerimeter=0;" edge="1" parent="1" source="vrtzPakDpffFBHqEH1uZ-13" target="vrtzPakDpffFBHqEH1uZ-19">
          <mxGeometry relative="1" as="geometry" />
        </mxCell>
        <mxCell id="vrtzPakDpffFBHqEH1uZ-25" style="edgeStyle=orthogonalEdgeStyle;rounded=0;orthogonalLoop=1;jettySize=auto;html=1;" edge="1" parent="1" source="vrtzPakDpffFBHqEH1uZ-13" target="vrtzPakDpffFBHqEH1uZ-23">
          <mxGeometry relative="1" as="geometry">
            <Array as="points">
              <mxPoint x="290" y="410" />
              <mxPoint x="290" y="371" />
            </Array>
          </mxGeometry>
        </mxCell>
        <mxCell id="vrtzPakDpffFBHqEH1uZ-28" style="edgeStyle=orthogonalEdgeStyle;rounded=0;orthogonalLoop=1;jettySize=auto;html=1;entryX=0;entryY=0.592;entryDx=0;entryDy=0;entryPerimeter=0;" edge="1" parent="1" source="vrtzPakDpffFBHqEH1uZ-13" target="vrtzPakDpffFBHqEH1uZ-27">
          <mxGeometry relative="1" as="geometry">
            <Array as="points">
              <mxPoint x="290" y="430" />
              <mxPoint x="290" y="600" />
            </Array>
          </mxGeometry>
        </mxCell>
        <mxCell id="vrtzPakDpffFBHqEH1uZ-34" style="edgeStyle=orthogonalEdgeStyle;rounded=0;orthogonalLoop=1;jettySize=auto;html=1;entryX=0.5;entryY=0;entryDx=0;entryDy=0;entryPerimeter=0;" edge="1" parent="1" source="vrtzPakDpffFBHqEH1uZ-13" target="vrtzPakDpffFBHqEH1uZ-33">
          <mxGeometry relative="1" as="geometry" />
        </mxCell>
        <mxCell id="vrtzPakDpffFBHqEH1uZ-13" value="esignature-activiti-bpm" style="rounded=0;whiteSpace=wrap;html=1;fontSize=12;fillColor=#dae8fc;strokeColor=#6c8ebf;" vertex="1" parent="1">
          <mxGeometry x="66.5" y="390" width="187" height="55" as="geometry" />
        </mxCell>
        <mxCell id="vrtzPakDpffFBHqEH1uZ-19" value="CTH" style="shape=cylinder3;whiteSpace=wrap;html=1;boundedLbl=1;backgroundOutline=1;size=15;fontSize=12;align=center;" vertex="1" parent="1">
          <mxGeometry x="137.75" y="484" width="44" height="66" as="geometry" />
        </mxCell>
        <mxCell id="vrtzPakDpffFBHqEH1uZ-20" value="Mobius" style="shape=cylinder3;whiteSpace=wrap;html=1;boundedLbl=1;backgroundOutline=1;size=15;fontSize=12;align=center;" vertex="1" parent="1">
          <mxGeometry x="199.5" y="484" width="44" height="66" as="geometry" />
        </mxCell>
        <mxCell id="vrtzPakDpffFBHqEH1uZ-26" style="edgeStyle=orthogonalEdgeStyle;rounded=0;orthogonalLoop=1;jettySize=auto;html=1;" edge="1" parent="1" source="vrtzPakDpffFBHqEH1uZ-23" target="vrtzPakDpffFBHqEH1uZ-24">
          <mxGeometry relative="1" as="geometry" />
        </mxCell>
        <mxCell id="vrtzPakDpffFBHqEH1uZ-23" value="adobe-outbound-rs-v1" style="rounded=1;whiteSpace=wrap;html=1;fontSize=12;align=center;fillColor=#dae8fc;strokeColor=#6c8ebf;" vertex="1" parent="1">
          <mxGeometry x="310" y="351" width="165" height="39" as="geometry" />
        </mxCell>
        <mxCell id="vrtzPakDpffFBHqEH1uZ-24" value="adobe-rs-v1-api" style="rounded=1;whiteSpace=wrap;html=1;fontSize=12;align=center;fillColor=#dae8fc;strokeColor=#6c8ebf;" vertex="1" parent="1">
          <mxGeometry x="540" y="354.5" width="143" height="32" as="geometry" />
        </mxCell>
        <mxCell id="vrtzPakDpffFBHqEH1uZ-27" value="Notify Consumers Services" style="rounded=0;whiteSpace=wrap;html=1;verticalAlign=top;align=left;" vertex="1" parent="1">
          <mxGeometry x="340" y="484" width="320" height="196" as="geometry" />
        </mxCell>
        <mxCell id="vrtzPakDpffFBHqEH1uZ-29" value="IA-activiti" style="rounded=1;whiteSpace=wrap;html=1;align=center;" vertex="1" parent="1">
          <mxGeometry x="420" y="510" width="160" height="30" as="geometry" />
        </mxCell>
        <mxCell id="vrtzPakDpffFBHqEH1uZ-30" value="business-process-rs-v1" style="rounded=1;whiteSpace=wrap;html=1;align=center;" vertex="1" parent="1">
          <mxGeometry x="420" y="550" width="160" height="30" as="geometry" />
        </mxCell>
        <mxCell id="vrtzPakDpffFBHqEH1uZ-31" value="transaction-event-rs-v1" style="rounded=1;whiteSpace=wrap;html=1;align=center;" vertex="1" parent="1">
          <mxGeometry x="420" y="590" width="160" height="30" as="geometry" />
        </mxCell>
        <mxCell id="vrtzPakDpffFBHqEH1uZ-32" value="plan-communication-rs-v1" style="rounded=1;whiteSpace=wrap;html=1;align=center;" vertex="1" parent="1">
          <mxGeometry x="420" y="630" width="160" height="30" as="geometry" />
        </mxCell>
        <mxCell id="vrtzPakDpffFBHqEH1uZ-33" value="Activiti&lt;br&gt;DB" style="shape=cylinder3;whiteSpace=wrap;html=1;boundedLbl=1;backgroundOutline=1;size=15;fontSize=12;align=center;" vertex="1" parent="1">
          <mxGeometry x="76" y="484" width="44" height="66" as="geometry" />
        </mxCell>
      </root>
    </mxGraphModel>
  </diagram>
</mxfile>
